<svg xmlns="http://www.w3.org/2000/svg" viewBox="0 0 512 512">
  <rect width="512" height="512" rx="128" fill="#2563EB"/>
  <path d="M256 120c-52.8 0-96 43.2-96 96v16h-16c-17.6 0-32 14.4-32 32v128c0 17.6 14.4 32 32 32h224c17.6 0 32-14.4 32-32V264c0-17.6-14.4-32-32-32h-16v-16c0-52.8-43.2-96-96-96zm48 96v16H208v-16c0-26.4 21.6-48 48-48s48 21.6 48 48z" fill="white"/>
  <circle cx="256" cy="340" r="24" fill="white" opacity="0.8"/>
  <path d="M256 364v32" stroke="white" stroke-width="8" stroke-linecap="round" opacity="0.8"/>
</svg>
